<?xml version="1.0"?><svg fill="none" height="24" viewBox="0 0 24 24" width="24" xmlns="http://www.w3.org/2000/svg"><path clip-rule="evenodd" d="M21 9.21416V17C21 17.5523 20.5523 18 20 18H19.145C18.8034 18 18.4855 17.8257 18.3019 17.5377L16.7311 15.0745C16.1802 14.2105 15.2264 13.6875 14.2017 13.6875H9.79834C8.77363 13.6875 7.81981 14.2105 7.26886 15.0745L5.69815 17.5377C5.5145 17.8257 5.19656 18 4.85499 18H4C3.44772 18 3 17.5523 3 17V9.21416C3 8.59476 3.28699 8.01032 3.77711 7.63159L5.02188 6.66972C6.42274 5.58724 8.1431 5 9.91346 5H14.0865C15.8569 5 17.5773 5.58724 18.9781 6.66972L20.2229 7.63159C20.713 8.01032 21 8.59476 21 9.21416ZM1 9.21416C1 7.97537 1.57397 6.80648 2.55421 6.04902L3.79898 5.08715C5.55006 3.73405 7.70051 3 9.91346 3H14.0865C16.2995 3 18.4499 3.73405 20.201 5.08715L21.4458 6.04902C22.426 6.80648 23 7.97537 23 9.21416V17C23 18.6569 21.6569 20 20 20H19.145C18.1203 20 17.1665 19.477 16.6155 18.613L15.0448 16.1498C14.8612 15.8618 14.5432 15.6875 14.2017 15.6875H9.79834C9.45677 15.6875 9.13883 15.8618 8.95518 16.1498L7.38447 18.613C6.83352 19.477 5.87969 20 4.85499 20H4C2.34315 20 1 18.6569 1 17V9.21416ZM20 10C20 10.5523 19.5523 11 19 11C18.4477 11 18 10.5523 18 10C18 9.44772 18.4477 9 19 9C19.5523 9 20 9.44772 20 10ZM17 13C16.4477 13 16 12.5523 16 12C16 11.4477 16.4477 11 17 11C17.5523 11 18 11.4477 18 12C18 12.5523 17.5523 13 17 13ZM7 13C6.44772 13 6 12.5523 6 12V11H5C4.44772 11 4 10.5523 4 10C4 9.44772 4.44772 9 5 9H6V8C6 7.44772 6.44772 7 7 7C7.55229 7 8 7.44772 8 8V9H9C9.55228 9 10 9.44771 10 10C10 10.5523 9.55229 11 9 11H8V12C8 12.5523 7.55228 13 7 13Z" fill="purple" fill-rule="evenodd" stroke="black"/></svg>