<?xml version="1.0" encoding="iso-8859-1"?>
<!-- Uploaded to: SVG Repo, www.svgrepo.com, Generator: SVG Repo Mixer Tools -->
<!DOCTYPE svg PUBLIC "-//W3C//DTD SVG 1.1//EN" "http://www.w3.org/Graphics/SVG/1.1/DTD/svg11.dtd">
<svg fill="grey" version="1.1" id="Capa_1" xmlns="http://www.w3.org/2000/svg" xmlns:xlink="http://www.w3.org/1999/xlink" 
	 width="16px" height="16px" viewBox="0 0 97.737 97.737"
	 xml:space="preserve">
<g>
	<g>
		<path d="M82.802,33.07c1.369-1.942,2.519-4.279,3.23-6.844c0.78-2.558,1.027-5.347,0.846-8.158
			c-0.216-2.803-0.876-5.631-2.118-8.207c-1.185-2.583-2.902-4.917-4.874-6.637c-1.971-1.718-4.168-2.765-5.8-3.077
			c-0.787-0.207-1.533-0.14-1.968-0.126c-0.445,0.044-0.685,0.074-0.685,0.074s0.003,0.231-0.004,0.669
			c0,0.411-0.144,1.093-0.219,1.731c-0.25,1.391-0.76,3.023-1.338,4.805c-1.105,3.511-1.972,7.708-1.592,12.132
			c0.186,2.193,0.555,4.428,1.26,6.574c0.657,2.137,1.563,4.187,2.557,5.996c0.903,1.608,2.926,5.31,3.736,6.314
			c0.644-1.696,1.26-3.441,1.712-5.26c0.39-1.258,0.588-2.555,0.852-3.816c0.26-1.268,0.309-2.541,0.469-3.763
			c0.055-1.227,0.014-2.414,0.024-3.547c-0.141-1.117-0.277-2.184-0.397-3.157c-0.273-0.949-0.52-1.825-0.735-2.597
			c-0.168-0.802-0.603-1.384-0.814-1.917c-0.507-1.047-0.798-1.651-0.798-1.651s0.332,0.579,0.917,1.585
			c0.254,0.521,0.736,1.09,0.962,1.875c0.277,0.77,0.592,1.643,0.938,2.589c0.202,0.993,0.421,2.065,0.65,3.203
			c0.075,1.15,0.205,2.377,0.239,3.642c-0.071,1.261-0.027,2.582-0.198,3.899c-0.178,1.321-0.284,2.678-0.589,3.992
			c-0.28,1.514-0.64,2.993-1.029,4.437c0.144-0.1,0.304-0.18,0.448-0.291C79.876,36.542,81.412,34.997,82.802,33.07z"/>
		<path d="M77.449,38.204c-0.362,0.144-1.225,1.686-1.485,2.341c-0.938,2.271-1.937,4.337-2.847,6.076
			c-0.093,0.18-0.182,0.34-0.273,0.512l-22.549-20.43c-1.492-1.352-3.76-1.366-5.269-0.035L12.141,55.624
			c-1.381,1.222-1.738,3.237-0.859,4.859c0.936,1.719,3.14,3.73,6.292,3.73c0.676,0,1.352-0.093,2.024-0.28v25.724
			c-0.003,0.182,0.015,0.455,0.056,0.767h-4.367v7.313H28.09V65.723h13.985v32.015h36.778v-7.316h-5.089
			c0.093-0.493,0.13-0.935,0.124-1.194V63.629c0.889,0.28,1.769,0.421,2.628,0.421c3.312,0,5.54-2.033,6.443-3.771
			c0.832-1.598,0.482-3.552-0.849-4.757l-7.908-7.163c1.252-2.796,2.71-6.458,3.833-10.53C77.84,37.952,77.662,38.1,77.449,38.204z
			 M64.941,80.589H50.959V65.501h13.982V80.589z"/>
	</g>
</g>
</svg>